<svg id="Icons.Currency.Bitcoin_logo" xmlns="http://www.w3.org/2000/svg" width="69.724" height="71.08" viewBox="0 0 69.724 71.08">
  <path id="Pfad_262" data-name="Pfad 262" d="M358.285,361.646c-4.657,19.039-23.574,30.626-42.255,25.879s-30.04-24.031-25.381-43.07,23.572-30.63,42.247-25.883,30.045,24.034,25.389,43.074Z" transform="translate(-289.604 -317.508)" fill="#f7931a"/>
  <path id="Pfad_263" data-name="Pfad 263" d="M350.087,348.123c.937-5.087-3.832-7.822-10.352-9.647l2.115-6.891-5.164-1.046-2.059,6.71c-1.358-.275-2.752-.534-4.137-.791l2.074-6.754-5.161-1.045-2.117,6.889c-1.124-.208-2.227-.413-3.3-.63l.006-.021-7.122-1.444-1.374,4.48s3.832.713,3.751.758c2.092.424,2.469,1.548,2.406,2.44l-2.409,7.851a5,5,0,0,1,.537.14c-.172-.035-.356-.073-.546-.11l-3.377,11a1.962,1.962,0,0,1-2.367,1c.051.061-3.754-.761-3.754-.761l-2.564,4.8,6.721,1.361c1.25.255,2.475.521,3.681.772l-2.137,6.97,5.158,1.045,2.117-6.9c1.409.311,2.777.6,4.116.867l-2.109,6.864,5.164,1.045,2.137-6.957c8.806,1.354,15.428.808,18.215-5.662,2.246-5.209-.112-8.214-4.745-10.174,3.374-.632,5.916-2.435,6.594-6.159Zm-11.8,13.44c-1.6,5.209-12.393,2.393-15.894,1.687l2.836-9.235C328.73,354.725,339.956,356.13,338.288,361.563Zm1.6-13.515c-1.456,4.738-10.443,2.331-13.358,1.741l2.571-8.375C332.013,342,341.4,343.1,339.885,348.048Z" transform="translate(-295.299 -317.327)" fill="#fff"/>
</svg>
