<svg id="Group" xmlns="http://www.w3.org/2000/svg" width="363.96" height="480" viewBox="0 0 363.96 480">
  <g id="Head" transform="translate(83.127)">
    <g id="Head-2" data-name="Head" transform="translate(60.66 34.848)">
      <path id="Head-3" data-name="Head" d="M0,82.06,9.281,38.77C4.105,32.691.6,25.239,1.187,16.89,2.874-7.166,36.338-1.874,42.847,10.268s5.736,42.94-2.676,45.11c-3.355.865-10.5-1.254-17.777-5.642L26.96,82.06Z" transform="translate(0 0)" fill="#b28b67"/>
    </g>
    <path id="hair" d="M49.05,27.395a35.162,35.162,0,0,0-11.281-1.247,19.429,19.429,0,0,0,1.374-9.815c-.4-3.234-1.846-5.988-3.182-8.873a12.141,12.141,0,0,0-2.354-3.67A8.036,8.036,0,0,0,29.8,1.742a10.182,10.182,0,0,0-4.386,0c-.638.134-1.21.426-1.835.588-.64.166-.951-.235-1.416-.638A8.016,8.016,0,0,0,17.982.066a10.772,10.772,0,0,0-4.757.571A9.31,9.31,0,0,0,9.263,3.178,6.648,6.648,0,0,0,8.076,5c-.115.277-.134.44-.41.542-.255.094-.553.1-.817.186A10.276,10.276,0,0,0,.944,11.083a17,17,0,0,0-.929,6.979c.09,2.909,2.715,10.5,5.17,13.268a16.489,16.489,0,0,0,8.521,4.816,24.4,24.4,0,0,0-4.453,8.309A40.686,40.686,0,0,0,7.215,54.548a32.965,32.965,0,0,0,.506,9.95,10.784,10.784,0,0,0,4.818,7.021,23.007,23.007,0,0,0,3.709,1.743,24.4,24.4,0,0,0,3.821,1.226c2.483.514,5.345.425,7.257-1.553a13.634,13.634,0,0,0,1.951-2.48c.181-.313.29-.518.07-.824a5.894,5.894,0,0,0-1.027-.935A9.689,9.689,0,0,1,24.9,62.282c-.305-2.633.4-6.032,2.96-7.181,3.158-1.419,6.635.21,9.442,1.727,1.193-4.213,3.642-8.006,7.482-9.939C49.03,44.752,53.9,44.5,58.27,42.667A8.046,8.046,0,0,0,61.4,40.673a4.056,4.056,0,0,0,.9-1.473,2.387,2.387,0,0,0-.624-1.851C59.814,34.425,52.734,28.519,49.05,27.395Z" transform="translate(43.808 4.496)" fill="#191847"/>
  </g>
  <g id="Bottom" transform="translate(0 211.335)">
    <g id="Seat" transform="translate(11.233 47.213)">
      <ellipse id="Ballsy_Ball" data-name="Ballsy Ball" cx="86.497" cy="82.623" rx="86.497" ry="82.623" transform="translate(43.81 -16.862)" fill="#c5cfd6"/>
    </g>
    <path id="Skin" d="M142.183,72.409c-7.154-25.076-12.6-47.143-13.971-55.383C124.931-2.623,153.444-3.768,157.213,6c5.7,14.781,15.662,63.345,27.628,136.7l-13.677,3.993C156.771,114.813,146.361,87.055,142.183,72.409ZM4.213,46.648c13.206-5.223,59.451-21.571,81.755-26.194,6.41-1.329,12.621-2.564,18.462-3.68,17.36-3.316,26.354,28.023,9.634,30.431C72.425,53.2,13.395,59.4,8.344,60.091a6.433,6.433,0,0,1-.874.06C.841,60.152-3.741,49.795,4.213,46.648Z" transform="translate(133.832 36.159)" fill="#b28b67"/>
    <path id="Leg_Back" data-name="Leg Back" d="M71.623,48.033a14.619,14.619,0,0,1-.194-3.724L0,7.922V0H8.494S112.152,26.432,114.432,33.878c.016.053.03.1.043.158q.053.07.1.141c13.7,18.848,21.9,110.865,24.59,117.755l-26.244,3.918C102.887,118.6,70.77,92.648,71.623,48.033Z" transform="translate(177.487)" fill="#1f28cf"/>
    <path id="Leg_Front" data-name="Leg Front" d="M34.91,73.325l21.574-7.406c-6.534-1.309-12.554-2.478-17.7-3.381C5.515,56.7-4.186,38.879,1.55,0H62.842c10.012,2.878,62.044,24.714,89.041,36.327,17.867,7.687,12.235,35.4,2.116,42.608a.989.989,0,0,1-.561.878C116,95.337,83.949,94.584,62.9,93.83c-9.558-.342-16.846-.685-21.338.5Z" transform="translate(126.937)" fill="#2b44ff"/>
    <g id="Right_Shoe" data-name="Right Shoe" transform="matrix(0.438, 0.899, -0.899, 0.438, 166.888, 64.245)">
      <path id="shoe" d="M4.474,5.033A2,2,0,0,0,1.908,6.381L0,13.106A64.242,64.242,0,0,0,.9,21H57.3s2.2-7.268-2.538-7.848-7.87-1.047-7.87-1.047L20.68.419a1,1,0,0,0-1.332.532L17.663,5.039s-4.385,2.046-7.127,2.046Z" transform="translate(1 19)" fill="#e4e4e4"/>
    </g>
    <g id="Right_Shoe-2" data-name="Right Shoe" transform="translate(295.437 148.384)">
      <path id="shoe-2" data-name="shoe" d="M5.025,5.616A2.246,2.246,0,0,0,2.144,7.132L0,14.691a72.264,72.264,0,0,0,1.012,8.874H64.37s2.47-8.17-2.851-8.822-8.84-1.176-8.84-1.176L23.231.43a1.123,1.123,0,0,0-1.5.6L19.842,5.623s-4.926,2.3-8.005,2.3Z" transform="translate(1.123 21.4)" fill="#e4e4e4"/>
    </g>
  </g>
  <g id="Body_Long_Sleeve_1" data-name="Body/Long Sleeve 1" transform="translate(60.843 88.229)">
    <path id="Skin-2" data-name="Skin" d="M1.378,97.554c-1.254-.773-2.627-3.687.691-5.963,8.266-5.671,20.177-15.6,21.786-18.864C27.146,66.044,38.356.909,38.356.909L61.831,1S40.089,71.236,38.356,75.534c-2.6,6.447,2.9,16.264,5.253,21.54-3.707,1.66-5.43-.459-7.316-2.579-2.01-2.259-4.207-4.518-9.193-2.2C20.72,95.27,15.445,99.986,9.156,99.985A14.584,14.584,0,0,1,1.378,97.554ZM203.5,34.319,168.014,19.595,175.934,0l35.833,26.331q14.578,3.937,24.358,9.8c1.541,1.4,3.4,4.248-2.985,3.757s-13.129-.721-14.01,1.459,2.984,4.787,1.2,7.729a.847.847,0,0,1-.777.419Q216.405,49.492,203.5,34.319Z" transform="translate(0 107.606)" fill="#b28b67"/>
    <path id="Coat_Back" data-name="Coat Back" d="M0,2.508,9.531,0C48.15,27.9,68.113,86.231,114.885,113.967l-9.443,14.066C28.268,125.253,2.982,54.179,0,2.508Z" transform="matrix(0.996, 0.087, -0.087, 0.996, 105.287, 7.445)" fill="#941e41"/>
    <path id="Shirt" d="M0,128.15H85.948c3.927,0,3.187-5.675,2.62-8.539C82.015,86.562,56.438,50.936,56.438,3.89L31.646,0C11.141,33,4.049,73.635,0,128.15Z" transform="translate(62.724 3.949)" fill="#dde3e9"/>
    <path id="Coat_Front" data-name="Coat Front" d="M.114,179.312C-1.869,115.149,22.408,65.772,42.724,36c-4.511-.323-8.583-2.211-11.157-6.859-9.061-16.361-5.789-25.37,3.9-28.331S53.782,3.949,69.211,3.949a12.017,12.017,0,0,1,1.84.131l8.227.47s33.4,113.278,18.423,151.155H29.766a215.78,215.78,0,0,1-11.22,23.606Z" transform="translate(23.293)" fill="#eb3141"/>
    <path id="Shade" d="M25.391,41.082H0C4.657,29.891,9.793,16.069,15.267,0c2.28,19.8,5.685,33.624,10.123,41.081Z" transform="translate(53.06 114.623)" fill="rgba(0,0,0,0.1)"/>
  </g>
</svg>
