<?xml version="1.0" encoding="UTF-8" standalone="no"?>
<svg
   id="Layer_1"
   data-name="Layer 1"
   viewBox="0 0 1373.9722 362.50999"
   version="1.1"
   sodipodi:docname="Equs-logo-dark.svg"
   width="1373.9722"
   height="362.51001"
   inkscape:version="1.1 (c4e8f9e, 2021-05-24)"
   xmlns:inkscape="http://www.inkscape.org/namespaces/inkscape"
   xmlns:sodipodi="http://sodipodi.sourceforge.net/DTD/sodipodi-0.dtd"
   xmlns="http://www.w3.org/2000/svg"
   xmlns:svg="http://www.w3.org/2000/svg">
  <sodipodi:namedview
     id="namedview33"
     pagecolor="#ffffff"
     bordercolor="#666666"
     borderopacity="1.0"
     inkscape:pageshadow="2"
     inkscape:pageopacity="0.0"
     inkscape:pagecheckerboard="0"
     showgrid="false"
     inkscape:zoom="0.58697917"
     inkscape:cx="687.41792"
     inkscape:cy="179.73381"
     inkscape:window-width="1296"
     inkscape:window-height="947"
     inkscape:window-x="0"
     inkscape:window-y="25"
     inkscape:window-maximized="0"
     inkscape:current-layer="Layer_1" />
  <defs
     id="defs4">
    <style
       id="style2">.cls-1{fill:#fff9f3;}.cls-2{fill:#fd7765;}.cls-3{fill:#e0aa3e;}.cls-4{fill:#219ba1;}</style>
  </defs>
  <path
     class="cls-1"
     d="m 863.71,143.06 a 124.78,124.78 0 1 0 -160.45,119.61 27.83,27.83 0 0 0 35.68,-26.73 v 0 A 27.67,27.67 0 0 0 719.33,209.33 69.1,69.1 0 1 1 808,143.06 v 190.41 0 q 0,0.6 0,1.2 a 27.84,27.84 0 0 0 55.68,0 q 0,-0.6 0,-1.2 v 0 z"
     id="path6" />
  <path
     class="cls-1"
     d="m 1145.29,45.719996 a 27.85,27.85 0 0 0 -55.69,0 c 0,0.22 0,0.43 0,0.65 v 0 V 141.68 c 0,39.59 -32.82,71.84 -72.37,70 a 69.09,69.09 0 0 1 -65.81,-69 V 45.719996 a 27.84,27.84 0 0 0 -27.85,-27.84 v 0 a 27.84,27.84 0 0 0 -27.84,27.84 V 142.65 a 124.78,124.78 0 1 0 249.56,0 v -96.280004 0 c -0.01,-0.21 0,-0.43 0,-0.65 z"
     id="path8" />
  <path
     class="cls-2"
     d="M 427.89,240.26 A 27.84,27.84 0 1 0 456,212.42 h -0.24 a 27.83,27.83 0 0 0 -27.87,27.84 z"
     id="path10" />
  <path
     class="cls-1"
     d="m 1203.67,252.65 v 0 c 24.95,15.6 49.75,22.82 78.5,22.82 25.43,0 48.64,-8 65.37,-22.45 a 75.59,75.59 0 0 0 26.43,-58 v -0.86 c 0,-23.55 -10.59,-42.47 -31.48,-56.24 -16.86,-11.11 -37.21,-16.83 -52.09,-21 -25.62,-7.37 -46.82,-14.31 -46.82,-24.550004 v -0.84 c 0,-11.58 12.76,-19.66 31,-19.66 18.24,0 31.56,2.28 45,10.26 v 0 l 4,1.88 c 12.83,7.59 25.39,1.49 33.5,-11.18 v 0 c 8.11,-12.65 4.38,-30.51 -7.54,-37.87 l -2.26,-1.31 c -1.24,-0.74 0.4,0.18 -3,-1.71 l -3.52,-1.9 v 0 c -22.39,-11.66 -41.72,-13.06 -65.28,-13.06 -24.47,0 -46.82,7.63 -62.93,21.48 a 72.27,72.27 0 0 0 -25.5,55.59 v 0.85 c 0,51.000004 48.93,65.120004 84.67,75.440004 l 1.89,0.54 c 32.77,9.24 43.83,15.74 43.83,25.8 v 0.84 c 0,18.22 -22.22,23 -34,23 -20,0 -33,-3.32 -51.81,-15.93 v 0 a 27.84,27.84 0 0 0 -39,5.24 v 0 a 27.89,27.89 0 0 0 3.15,37.46 v 0"
     id="path12" />
  <path
     class="cls-1"
     d="m 577.45,114.79 a 124.8,124.8 0 1 0 -225.58,96.94 125.54,125.54 0 0 0 34.74,34.77 c 2.07,1.4 4.18,2.75 6.36,4 a 132.47,132.47 0 0 0 26.57,12.41 36.52,36.52 0 0 1 12.1,-55.27 69.52,69.52 0 0 1 -10.19,-5 c -1.56,-0.93 -3.09,-1.91 -4.57,-2.94 v 0 c -0.52,-0.36 -1,-0.72 -1.55,-1.09 l -0.78,-0.58 -0.62,-0.47 -0.9,-0.7 -0.81,-0.64 -0.44,-0.36 A 69.1,69.1 0 1 1 519,114.79 h -35.4 a 27.85,27.85 0 0 0 -27.85,27.85 v 0 a 27.84,27.84 0 0 0 27.85,27.84 h 93.81 a 125.81,125.81 0 0 0 0,-55.69 z"
     id="path14" />
  <circle
     class="cls-2"
     cx="26.959991"
     cy="27.119987"
     r="26.790001"
     id="circle16" />
  <circle
     class="cls-3"
     cx="109.84"
     cy="26.790001"
     r="26.790001"
     id="circle18" />
  <circle
     class="cls-4"
     cx="192.88"
     cy="27.119987"
     r="26.790001"
     id="circle20" />
  <path
     class="cls-2"
     d="M 27.61,71.539996 A 27,27 0 0 0 0,98.469996 V 237.31 c 0,0.09 0,0.18 0,0.27 v 1.76 a 25.53,25.53 0 0 0 25.53,25.53 h 2.74 A 25.53,25.53 0 0 0 53.8,239.34 v 0 c 0,-0.54 0.06,-1.09 0.06,-1.64 V 98.969996 c 0.04,-14.7 -11.54,-27.08 -26.25,-27.43 z"
     id="path22" />
  <path
     class="cls-3"
     d="m 110.41,71.209996 a 27,27 0 0 0 -27.59,26.95 V 109.06 h -0.09 v 86.21 A 24.29,24.29 0 0 0 107,219.56 h 5.21 a 24.28,24.28 0 0 0 24.29,-24.29 v 0 a 27.15,27.15 0 0 0 0.16,-2.87 V 98.639996 c 0.03,-14.71 -11.55,-27.08 -26.25,-27.43 z"
     id="path24" />
  <path
     class="cls-4"
     d="M 219.82,154.36 V 98.969996 c 0,-14.7 -11.59,-27.08 -26.29,-27.43 a 27,27 0 0 0 -27.53,26.93 V 237.29 a 27.5,27.5 0 0 0 0.19,3.16 v 0 a 24.41,24.41 0 0 0 24.41,24.42 h 5 a 24.41,24.41 0 0 0 24.41,-24.42 v -86.09 z"
     id="path26" />
  <path
     class="cls-4"
     d="m 235.9,261.6 h -1.67 v -12.9 h -4.56 v -1.48 h 10.78 v 1.48 h -4.55 z"
     id="path28" />
  <path
     class="cls-4"
     d="m 249,261.6 -4.88,-12.75 H 244 c 0.09,1 0.13,2.21 0.13,3.6 v 9.15 h -1.54 v -14.38 h 2.52 l 4.55,11.86 h 0.08 l 4.6,-11.86 h 2.49 v 14.38 h -1.67 v -9.27 c 0,-1.06 0,-2.21 0.14,-3.46 h -0.08 l -4.92,12.73 z"
     id="path30" />
</svg>
