<?xml version="1.0" encoding="UTF-8" standalone="no"?>
<svg
   id="Layer_1"
   data-name="Layer 1"
   viewBox="0 0 1373.9421 362.51001"
   version="1.1"
   sodipodi:docname="Equs-logo-light.svg"
   width="1373.9421"
   height="362.51001"
   inkscape:version="1.1 (c4e8f9e, 2021-05-24)"
   xmlns:inkscape="http://www.inkscape.org/namespaces/inkscape"
   xmlns:sodipodi="http://sodipodi.sourceforge.net/DTD/sodipodi-0.dtd"
   xmlns="http://www.w3.org/2000/svg"
   xmlns:svg="http://www.w3.org/2000/svg">
  <sodipodi:namedview
     id="namedview252"
     pagecolor="#ffffff"
     bordercolor="#666666"
     borderopacity="1.0"
     inkscape:pageshadow="2"
     inkscape:pageopacity="0.0"
     inkscape:pagecheckerboard="0"
     showgrid="false"
     inkscape:zoom="0.58697917"
     inkscape:cx="685.71429"
     inkscape:cy="179.73381"
     inkscape:window-width="1296"
     inkscape:window-height="949"
     inkscape:window-x="0"
     inkscape:window-y="25"
     inkscape:window-maximized="0"
     inkscape:current-layer="Layer_1" />
  <defs
     id="defs223">
    <style
       id="style221">.cls-1{fill:#182125;}.cls-2{fill:#fd7765;}.cls-3{fill:#e0aa3e;}.cls-4{fill:#219ba1;}</style>
  </defs>
  <path
     class="cls-1"
     d="m 863.68,143.07 a 124.77,124.77 0 1 0 -160.45,119.61 27.83,27.83 0 0 0 35.68,-26.74 v 0 A 27.67,27.67 0 0 0 719.3,209.34 69.1,69.1 0 1 1 808,143.07 v 190.41 0 c 0,0.4 0,0.79 0,1.19 a 27.84,27.84 0 1 0 55.68,0 c 0,-0.4 0,-0.79 0,-1.19 v 0 z"
     id="path225" />
  <path
     class="cls-1"
     d="m 1145.26,45.730002 a 27.85,27.85 0 1 0 -55.69,0 c 0,0.21 0,0.43 0,0.64 v 0 V 141.68 c 0,39.6 -32.82,71.85 -72.37,70 a 69.09,69.09 0 0 1 -65.81,-69 V 45.730002 a 27.85,27.85 0 0 0 -27.85,-27.85 v 0 a 27.85,27.85 0 0 0 -27.84,27.85 V 142.66 a 124.78,124.78 0 1 0 249.56,0 v -96.289998 0 c -0.01,-0.21 0,-0.43 0,-0.64 z"
     id="path227" />
  <path
     class="cls-2"
     d="m 427.86,240.26 a 27.84,27.84 0 1 0 28.07,-27.84 h -0.24 a 27.83,27.83 0 0 0 -27.83,27.84 z"
     id="path229" />
  <path
     class="cls-1"
     d="m 1203.64,252.65 v 0 0 c 24.95,15.61 49.75,22.83 78.5,22.83 25.43,0 48.64,-8 65.37,-22.45 a 75.6,75.6 0 0 0 26.43,-58 v -0.84 c 0,-23.55 -10.59,-42.47 -31.48,-56.24 -16.86,-11.11 -37.21,-16.83 -52.09,-21 -25.62,-7.37 -46.82,-14.31 -46.82,-24.549998 v -0.84 c 0,-11.58 12.76,-19.66 31,-19.66 18.24,0 31.56,2.28 45,10.26 v 0 l 4,1.88 c 12.83,7.59 25.39,1.48 33.5,-11.18 v 0 c 8.11,-12.65 4.38,-30.51 -7.54,-37.88 l -2.26,-1.3 c -1.24,-0.74 0.4,0.18 -3,-1.72 l -3.52,-1.89 v 0 c -22.39,-11.67 -41.72,-13.06 -65.28,-13.06 -24.47,0 -46.82,7.63 -62.93,21.48 a 72.25,72.25 0 0 0 -25.5,55.59 v 0.84 c 0,50.999998 48.93,65.129998 84.67,75.449998 l 1.89,0.54 c 32.77,9.23 43.83,15.74 43.83,25.8 v 0.84 c 0,18.22 -22.22,23 -34,23 -20,0 -33,-3.32 -51.81,-15.93 v 0 a 27.84,27.84 0 0 0 -39,5.24 v 0 a 27.89,27.89 0 0 0 3.15,37.46 v 0"
     id="path231" />
  <path
     class="cls-1"
     d="m 577.47,114.8 a 124.8,124.8 0 1 0 -225.58,96.94 125.37,125.37 0 0 0 34.74,34.76 c 2.07,1.41 4.18,2.76 6.36,4 a 132.4,132.4 0 0 0 26.48,12.45 36.51,36.51 0 0 1 12.1,-55.26 69.52,69.52 0 0 1 -10.19,-5 c -1.56,-0.93 -3.09,-1.91 -4.57,-2.94 v 0 c -0.52,-0.35 -1,-0.72 -1.55,-1.08 l -0.78,-0.58 -0.62,-0.47 -0.9,-0.7 -0.81,-0.64 -0.44,-0.36 A 69.1,69.1 0 1 1 518.96,114.8 h -35.4 a 27.85,27.85 0 0 0 -27.85,27.85 v 0 a 27.85,27.85 0 0 0 27.85,27.84 h 93.91 a 125.81,125.81 0 0 0 0,-55.69 z"
     id="path233" />
  <circle
     class="cls-2"
     cx="26.929991"
     cy="27.129997"
     r="26.790001"
     id="circle235" />
  <circle
     class="cls-3"
     cx="109.81"
     cy="26.790001"
     r="26.790001"
     id="circle237" />
  <circle
     class="cls-4"
     cx="192.85001"
     cy="27.129997"
     r="26.790001"
     id="circle239" />
  <path
     class="cls-2"
     d="M 27.58,71.550002 A 27,27 0 0 0 0,98.480002 V 237.32 c 0,0.09 0,0.18 0,0.27 v 1.75 a 25.53,25.53 0 0 0 25.53,25.53 h 2.74 A 25.53,25.53 0 0 0 53.8,239.34 v 0 c 0,-0.54 0.06,-1.08 0.06,-1.63 V 98.980002 c 0.01,-14.72 -11.57,-27.08 -26.28,-27.43 z"
     id="path241" />
  <path
     class="cls-3"
     d="m 110.38,71.260002 a 27,27 0 0 0 -27.59,26.92 V 109.11 H 82.7 v 86.15 a 24.29,24.29 0 0 0 24.3,24.29 h 5.21 a 24.28,24.28 0 0 0 24.26,-24.29 v 0 a 27.3,27.3 0 0 0 0.16,-2.87 V 98.640002 c 0.03,-14.7 -11.55,-27.08 -26.25,-27.38 z"
     id="path243" />
  <path
     class="cls-4"
     d="M 219.79,154.37 V 98.980002 c 0,-14.71 -11.59,-27.08 -26.29,-27.43 a 27,27 0 0 0 -27.58,26.93 V 237.26 a 27.67,27.67 0 0 0 0.19,3.17 v 0 a 24.41,24.41 0 0 0 24.41,24.41 h 5 a 24.41,24.41 0 0 0 24.41,-24.41 v -86.06 z"
     id="path245" />
  <path
     class="cls-4"
     d="m 235.87,261.61 h -1.67 v -12.9 h -4.56 v -1.45 h 10.83 v 1.48 h -4.6 z"
     id="path247" />
  <path
     class="cls-4"
     d="m 248.95,261.61 -4.88,-12.75 H 244 c 0.09,1 0.13,2.21 0.13,3.6 v 9.15 h -1.54 v -14.35 h 2.52 l 4.55,11.86 h 0.08 l 4.6,-11.86 h 2.49 v 14.38 h -1.67 v -9.27 c 0,-1.06 0,-2.22 0.14,-3.46 h -0.08 l -4.92,12.73 z"
     id="path249" />
</svg>
