<?xml version="1.0" encoding="UTF-8" standalone="no"?>
<svg
   id="Layer_1"
   data-name="Layer 1"
   viewBox="0 0 460 474.38"
   version="1.1"
   sodipodi:docname="Equs-logo-icon-color.svg"
   width="460"
   height="474.38"
   inkscape:version="1.1 (c4e8f9e, 2021-05-24)"
   xmlns:inkscape="http://www.inkscape.org/namespaces/inkscape"
   xmlns:sodipodi="http://sodipodi.sourceforge.net/DTD/sodipodi-0.dtd"
   xmlns="http://www.w3.org/2000/svg"
   xmlns:svg="http://www.w3.org/2000/svg">
  <sodipodi:namedview
     id="namedview89"
     pagecolor="#ffffff"
     bordercolor="#666666"
     borderopacity="1.0"
     inkscape:pageshadow="2"
     inkscape:pageopacity="0.0"
     inkscape:pagecheckerboard="0"
     showgrid="false"
     inkscape:zoom="0.94125"
     inkscape:cx="230.01328"
     inkscape:cy="237.4502"
     inkscape:window-width="1296"
     inkscape:window-height="949"
     inkscape:window-x="0"
     inkscape:window-y="25"
     inkscape:window-maximized="0"
     inkscape:current-layer="Layer_1" />
  <defs
     id="defs70">
    <style
       id="style68">.cls-1{fill:#fd7765;}.cls-2{fill:#e0aa3e;}.cls-3{fill:#219ba1;}</style>
  </defs>
  <circle
     class="cls-1"
     cx="48.240005"
     cy="48.580006"
     r="47.98"
     id="circle72" />
  <circle
     class="cls-2"
     cx="196.67999"
     cy="47.98"
     r="47.98"
     id="circle74" />
  <circle
     class="cls-3"
     cx="345.40002"
     cy="48.580006"
     r="47.98"
     id="circle76" />
  <path
     class="cls-1"
     d="m 49.4,128.19001 a 48.29,48.29 0 0 0 -49.4,48.17 v 248.67 c 0,0.16 0,0.32 0,0.49 v 3.14 a 45.72,45.72 0 0 0 45.72,45.72 h 4.92 a 45.72,45.72 0 0 0 45.72,-45.72 v 0 c 0.06,-1 0.09,-1.94 0.09,-2.93 v -248.46 c 0.02,-26.34 -20.71,-48.5 -47.05,-49.08 z"
     id="path78" />
  <path
     class="cls-2"
     d="m 197.68,127.54001 a 48.29,48.29 0 0 0 -49.39,48.22 v 19.58 h -0.17 v 154.4 a 43.51,43.51 0 0 0 43.51,43.51 H 201 a 43.51,43.51 0 0 0 43.51,-43.51 v 0 a 48.59,48.59 0 0 0 0.28,-5.14 v -167.93 c -0.03,-26.34 -20.79,-48.48 -47.11,-49.13 z"
     id="path80" />
  <path
     class="cls-3"
     d="m 393.64,276.47001 v -99.2 c 0,-26.34 -20.74,-48.5 -47.08,-49.13 a 48.29,48.29 0 0 0 -49.39,48.22 v 248.63 a 48.49,48.49 0 0 0 0.34,5.67 v 0 a 43.71,43.71 0 0 0 43.72,43.72 h 8.92 a 43.72,43.72 0 0 0 43.72,-43.72 v -154.19 z"
     id="path82" />
  <path
     class="cls-3"
     d="m 422.44,468.54001 h -3 v -23.11 h -8.16 v -2.66 h 19.32 v 2.66 h -8.16 z"
     id="path84" />
  <path
     class="cls-3"
     d="m 445.88,468.54001 -8.74,-22.84 H 437 q 0.24,2.72 0.24,6.45 v 16.39 h -2.76 v -25.77 H 439 l 8.16,21.25 h 0.14 l 8.23,-21.25 H 460 v 25.77 h -3 v -16.6 c 0,-1.91 0.08,-4 0.24,-6.21 h -0.14 l -8.81,22.81 z"
     id="path86" />
</svg>
