<svg id="Icons.Social.Twitter" xmlns="http://www.w3.org/2000/svg" width="34.02" height="27.644" viewBox="0 0 34.02 27.644">
  <path id="white_background" d="M31.537,8.379c.021.3.021.6.021.9,0,9.223-7.021,19.859-19.859,19.859v-.006A19.759,19.759,0,0,1,1,26.006a14.2,14.2,0,0,0,1.661.1,14.015,14.015,0,0,0,8.668-2.994,6.988,6.988,0,0,1-6.521-4.847,6.957,6.957,0,0,0,3.151-.12,6.98,6.98,0,0,1-5.6-6.841v-.088a6.935,6.935,0,0,0,3.168.873,6.988,6.988,0,0,1-2.16-9.319,19.81,19.81,0,0,0,14.385,7.292A6.986,6.986,0,0,1,29.648,3.7,14.006,14.006,0,0,0,34.08,2a7.006,7.006,0,0,1-3.068,3.86,13.881,13.881,0,0,0,4.008-1.1A14.179,14.179,0,0,1,31.537,8.379Z" transform="translate(-1 -1.497)" fill="#f2f2f7"/>
</svg>
